<svg viewBox="0 0 1837 520" fill="none" xmlns="http://www.w3.org/2000/svg"><g id="Logo"><g id="Logotype"><g id="Liana"><path d="M795.485 79.9201C784.222 79.9201 774.775 76.1051 767.145 68.4751C759.515 60.8451 753.7 51.3984 753.7 40.1351C753.7 28.8718 759.515 19.4251 767.145 11.7951C774.775 4.1651 784.222 0.350098 795.485 0.350098C806.385 0.350098 815.65 4.1651 823.28 11.7951C830.91 19.4251 834.725 28.8718 834.725 40.1351C834.725 51.3984 830.91 60.8451 823.28 68.4751C815.65 76.1051 806.385 79.9201 795.485 79.9201ZM826.005 119.705V420H763.875V119.705H826.005Z" fill="#4CA74E"/><path d="M859.616 268.49C859.616 238.333 865.793 211.628 878.146 188.375C890.863 165.122 907.94 147.137 929.376 134.42C951.176 121.34 975.156 114.8 1001.32 114.8C1024.93 114.8 1045.46 119.523 1062.9 128.97C1080.7 138.053 1094.87 149.498 1105.41 163.305V119.705H1168.09V420H1105.41V375.31C1094.87 389.48 1080.52 401.288 1062.36 410.735C1044.19 420.182 1023.48 424.905 1000.23 424.905C974.429 424.905 950.813 418.365 929.376 405.285C907.94 391.842 890.863 373.312 878.146 349.695C865.793 325.715 859.616 298.647 859.616 268.49ZM1105.41 269.58C1105.41 248.87 1101.05 230.885 1092.33 215.625C1083.97 200.365 1072.89 188.738 1059.09 180.745C1045.28 172.752 1030.38 168.755 1014.4 168.755C998.41 168.755 983.513 172.752 969.706 180.745C955.9 188.375 944.636 199.82 935.916 215.08C927.56 229.977 923.381 247.78 923.381 268.49C923.381 289.2 927.56 307.367 935.916 322.99C944.636 338.613 955.9 350.603 969.706 358.96C983.876 366.953 998.773 370.95 1014.4 370.95C1030.38 370.95 1045.28 366.953 1059.09 358.96C1072.89 350.967 1083.97 339.34 1092.33 324.08C1101.05 308.457 1105.41 290.29 1105.41 269.58Z" fill="#4CA74E"/><path d="M1373.95 114.8C1397.57 114.8 1418.64 119.705 1437.17 129.515C1456.06 139.325 1470.78 153.858 1481.32 173.115C1491.85 192.372 1497.12 215.625 1497.12 242.875V420H1435.54V252.14C1435.54 225.253 1428.81 204.725 1415.37 190.555C1401.93 176.022 1383.58 168.755 1360.33 168.755C1337.07 168.755 1318.54 176.022 1304.74 190.555C1291.29 204.725 1284.57 225.253 1284.57 252.14V420H1222.44V119.705H1284.57V154.04C1294.74 141.687 1307.64 132.058 1323.27 125.155C1339.25 118.252 1356.15 114.8 1373.95 114.8Z" fill="#4CA74E"/><path d="M1528.41 268.49C1528.41 238.333 1534.59 211.628 1546.94 188.375C1559.66 165.122 1576.74 147.137 1598.17 134.42C1619.97 121.34 1643.95 114.8 1670.11 114.8C1693.73 114.8 1714.26 119.523 1731.7 128.97C1749.5 138.053 1763.67 149.498 1774.21 163.305V119.705H1836.88V420H1774.21V375.31C1763.67 389.48 1749.32 401.288 1731.15 410.735C1712.99 420.182 1692.28 424.905 1669.02 424.905C1643.23 424.905 1619.61 418.365 1598.17 405.285C1576.74 391.842 1559.66 373.312 1546.94 349.695C1534.59 325.715 1528.41 298.647 1528.41 268.49ZM1774.21 269.58C1774.21 248.87 1769.85 230.885 1761.13 215.625C1752.77 200.365 1741.69 188.738 1727.88 180.745C1714.08 172.752 1699.18 168.755 1683.19 168.755C1667.21 168.755 1652.31 172.752 1638.5 180.745C1624.7 188.375 1613.43 199.82 1604.71 215.08C1596.36 229.977 1592.18 247.78 1592.18 268.49C1592.18 289.2 1596.36 307.367 1604.71 322.99C1613.43 338.613 1624.7 350.603 1638.5 358.96C1652.67 366.953 1667.57 370.95 1683.19 370.95C1699.18 370.95 1714.08 366.953 1727.88 358.96C1741.69 350.967 1752.77 339.34 1761.13 324.08C1769.85 308.457 1774.21 290.29 1774.21 269.58Z" fill="#4CA74E"/><path fill-rule="evenodd" clip-rule="evenodd" d="M614 329V20.0001H676V329C676 345.016 688.984 358 705 358H732V420H705C654.742 420 614 379.258 614 329Z" fill="#4CA74E"/></g></g><g id="Logomark"><path id="Arc L" d="M23.2148 420.067L100.398 519.668C182.903 455.639 236 355.52 236 243C236 199.715 228.143 158.266 213.777 120H73.2387C96.4778 155.305 110 197.573 110 243C110 315.013 76.0181 379.089 23.2148 420.067Z" fill="#4CA74E"/><path id="Arc R" d="M286.224 420H426.762C403.522 384.695 390 342.427 390 297C390 224.987 423.982 160.911 476.785 119.932L399.602 20.332C317.097 84.3604 264 184.479 264 297C264 340.285 271.857 381.734 286.224 420Z" fill="#4CA74E"/></g></g></svg>